<?xml version="1.0" encoding="UTF-8"?>
<svg id="Layer_2" data-name="Layer 2" xmlns="http://www.w3.org/2000/svg" viewBox="0 0 235.26 320.94">
  <defs>
    <style>
      .cls-1 {
        fill: #1c1c1a;
      }
    </style>
  </defs>
  <g id="Layer_1-2" data-name="Layer 1">
    <g id="app_cart" data-name="app cart">
      <path id="Path_10241" data-name="Path 10241" class="cls-1" d="M224.56,302.73v-28.69c0-4.22,2.01-6.62,5.38-6.6s5.29,2.45,5.3,6.68c0,10.02,.04,20.05,0,30.07,.44,8.8-6.34,16.29-15.14,16.72-.47,.02-.94,.03-1.4,0H16.56c-8.79,.34-16.2-6.51-16.54-15.3-.02-.46-.02-.93,0-1.39V170.57c.11-26.86,3.93-53.58,11.34-79.4,1.15-4.05,3.58-5.77,6.95-4.87,3.08,.82,4.42,3.7,3.35,7.52-7.71,28.03-11.41,57.02-10.99,86.09,.26,40.87,.06,81.75,.06,122.62,0,6.12,1.52,7.65,7.69,7.65H161.24c-.85-3.66-1.15-7.43-.87-11.18v-123.29c-.19-44.63,9.14-88.78,27.35-129.52,.44-.99,.87-2,1.41-3.33h-27.96c-7.24,0-14.48,.08-21.72-.05-1.66-.23-3.24,.77-3.75,2.37-5.18,11.3-9.68,22.9-13.5,34.73-1.43,4.53-2.69,5.4-7.52,5.41-9.47,0-18.94-.19-28.4,.08-5.83,.17-8.58-3.57-6.5-9.3,4-11.05,8.09-22.05,13.1-33.25h-3.08c-15.48,0-30.96,.04-46.44-.05-1.76-.22-3.44,.84-3.98,2.53-3.85,8.37-7.34,16.9-10.59,25.51-.64,2.82-3.45,4.59-6.27,3.95-.59-.13-1.15-.37-1.66-.69-2.48-1.56-3.32-4.78-1.91-7.36,2.71-7.29,5.48-14.55,8.78-21.58,.81-1.75,1.27-2.62-1.25-3.49-6.43-2.2-10.67-8.32-10.48-15.11v-9.02C15.23,8.66,21.78,.84,30.65,.06c.92-.08,1.85-.08,2.77,0H201.8c8.85-.73,16.62,5.86,17.35,14.71,.07,.83,.07,1.67,.01,2.51v9.35c.14,6.79-4.12,12.9-10.54,15.12-2.07,.75-2.14,1.4-1.33,3.19,18.14,40.07,27.65,83.5,27.92,127.48,.07,25.62,0,51.23,0,76.88,.04,.89,.02,1.78-.05,2.67-.24,2.8-2.64,4.92-5.45,4.8-2.7,0-4.94-2.09-5.14-4.78-.09-1-.11-2-.05-3.01,0-25.5,.12-51.01,0-76.51-.22-36.45-7.03-72.55-20.09-106.58-.22-.67-.65-1.26-1.24-1.65v3.11c0,70.28-.02,140.55-.05,210.83-.08,2.08,.77,4.1,2.32,5.49,6.24,6.05,12.36,12.3,19.1,19.07Zm-31.86-239.12c-.9,.77-1.5,1.82-1.69,2.99-12.19,31.39-18.74,64.68-19.35,98.34-.53,45.43-.26,90.85-.31,136.28,0,.24,.28,.47,.58,.97,6.18-6.2,12.15-12.34,18.29-18.35,1.72-1.55,2.65-3.8,2.54-6.12-.06-70.16-.08-140.34-.05-210.54,0-.99,0-2.1,0-3.58ZM63.16,10.8h-30.35c-2.94-.39-5.64,1.67-6.03,4.6-.06,.43-.06,.87-.02,1.3-.06,3.11-.05,6.23,0,9.34-.4,2.98,1.7,5.73,4.68,6.12,.5,.07,1.01,.06,1.51,0,20.34,0,40.69,0,61.03,.06,2.03,0,2.32-.72,2.29-2.48-.1-5.44-.17-10.9,0-16.34,.08-2.3-.73-2.68-2.8-2.62-10.09,.09-20.21,.02-30.32,.02Zm108.61,21.38h30.4c4.37,0,6.27-1.98,6.32-6.32,0-3.01,.05-6.02,0-9.02,.36-2.95-1.73-5.64-4.68-6-.43-.05-.87-.05-1.3,0-20.39,0-40.76,0-61.15-.06-1.86,0-2.45,.46-2.4,2.37,.13,5.45,.15,10.92,0,16.36-.06,2.18,.55,2.75,2.73,2.73,10.03-.1,20.06-.04,30.08-.04h0Zm-46.76,10.69c-6.34,0-12.34,.05-18.35,0-1.22-.08-2.33,.69-2.68,1.86-4.25,9.02-8.06,18.23-11.42,27.61-.6,1.69-.54,2.4,1.52,2.37,5.44-.1,10.89-.12,16.33,0,1.88,.04,2.48-.87,2.96-2.36,2.23-6.99,4.94-13.75,7.73-20.51,1.22-2.94,2.54-5.84,3.9-8.95v-.02Zm3.32-21.24c0-3.01-.07-6.02,0-9.02,.05-1.48-.43-1.89-1.88-1.87-5.9,.08-11.8,.08-17.69,0-1.47,0-1.89,.43-1.86,1.88,.08,5.9,.08,11.8,0,17.69,0,1.47,.43,1.89,1.88,1.87,5.9-.08,11.8-.08,17.69,0,1.47,0,1.91-.42,1.86-1.88-.07-2.87,0-5.76,0-8.66v-.02Zm51.21,288.37h36.79l.83-1c-5.96-5.61-11.93-11.21-17.86-16.86-.93-.87-1.49-.94-2.41,0-5.75,5.99-11.56,11.92-17.35,17.87v-.02Z"/>
      <path id="Path_10242" data-name="Path 10242" class="cls-1" d="M98.93,155.78c1.12,.59,2.41,.79,3.65,.56h30.39c5.45-.3,10.32,3.35,11.57,8.67,1.42,5.27-1.19,10.8-6.17,13.04-1.13,.34-1.77,1.52-1.43,2.65,0,.02,.01,.04,.02,.06,1.26,5.21-1.43,10.57-6.37,12.67-1.06,.57-1.65,.87-1.35,2.39,1.41,5.29-1.3,10.81-6.36,12.92-1.04,.34-1.6,1.46-1.26,2.49,0,.01,0,.02,.01,.03,1.3,5.32-1.48,10.78-6.53,12.88-.78,.38-1.75,.54-1.24,1.85,.56,2.21,.6,4.53,.1,6.75h17.78c4.53,0,5.78,1.39,5.41,5.86-1.02,9.86-9.39,17.31-19.3,17.18-5.01,.13-10.03,.17-15.03,0-2.81-.11-4.17,.36-3.91,3.66,.32,2-1.04,3.87-3.04,4.19-.8,.13-1.62-.01-2.33-.4-2.11-.93-2.32-2.88-2.09-4.83,.25-2.1-.53-2.62-2.62-2.62-5.45,.13-10.91,.15-16.36,0-10.04,.11-18.47-7.56-19.3-17.57-.33-3.84,1-5.43,4.84-5.46,5.34-.05,10.68-.07,16.04,0,1.7,0,2.51-.08,2.19-2.25-.2-3.25-1.68-6.29-4.12-8.45-2.95-2.52-4.29-6.46-3.49-10.26,.51-1.27-.1-2.71-1.36-3.22-.07-.03-.13-.05-.2-.07-4.77-2.17-7.31-7.43-6.05-12.51,.34-1.66-.17-2.04-1.37-2.66-4.8-2.07-7.45-7.27-6.29-12.37,.43-1.23-.22-2.57-1.45-3-.02,0-.04-.01-.05-.02-4.82-2.26-7.39-7.59-6.16-12.77,1.21-5.31,6.02-9.02,11.46-8.83,10.48-.08,20.95-.08,31.4,0,2.32,0,3.36-.2,2.17-2.94-1.12-2.56,.52-4.75,3.54-4.99,2.07-.17,3.83-.66,4.46-2.77,.69-1.8-.21-3.82-2.01-4.51-.07-.03-.14-.05-.21-.07-1.77-.82-3.88-.05-4.7,1.72-.02,.05-.04,.1-.06,.15-.23,.74-.4,1.49-.49,2.26-.28,2-2.13,3.39-4.12,3.11-.11-.02-.22-.04-.32-.06-2.08-.35-3.48-2.31-3.13-4.38,0-.02,0-.05,.01-.07,.41-5.29,4.34-9.64,9.57-10.59,6.26-1.03,12.16,3.21,13.19,9.47,.68,4.15-.97,8.35-4.29,10.93-.87,.78-1.93,1.36-3.19,2.17Zm-3.31,8.17H59.59c-.89-.05-1.78-.05-2.66,0-2.04-.02-3.71,1.61-3.74,3.65,0,.08,0,.17,0,.25-.04,2.01,1.55,3.67,3.56,3.72,.77,.08,1.55,.1,2.32,.06h72.39c.88,.05,1.76,0,2.62-.16,1.86-.25,3.21-1.92,3.07-3.79,.04-1.87-1.35-3.47-3.21-3.67-.87-.12-1.75-.16-2.62-.1-11.89,0-23.79,.01-35.7,.03Zm-.32,23h29.7c2.53,0,4.51-1,4.54-3.77s-1.79-3.9-4.37-3.9h-60.09c-2.04-.28-3.92,1.16-4.2,3.2-.02,.18-.04,.36-.03,.54-.15,2.48,1.68,3.9,5.08,3.91,9.78,.04,19.56,0,29.35,0h0Zm-33.97,53.58c1.61,4.36,5.69,7.33,10.33,7.52,15.67,.11,31.35,.09,47.02,0,3.87-.07,7.42-2.19,9.3-5.57,.8-1.25,.82-2.09-1.01-1.96H61.33Zm33.91-45.91h-21.71c-3.31,0-5.31,1.49-5.08,3.91,.28,2.94,2.3,3.7,4.97,3.7h43.42c3.42,0,5.24-1.41,5.06-3.89-.3-3.18-2.53-3.76-5.24-3.73-7.15,.05-14.27,0-21.41,0Zm-.04,22.87h13.98c3.39,0,5.24-1.39,5.07-3.85-.24-2.96-2.24-3.74-4.9-3.71-9.44,.05-18.88,.05-28.32,0-2.62,0-4.79,.73-4.85,3.73-.06,3,2,3.88,4.69,3.86,4.77-.05,9.57-.03,14.38-.03h-.04Zm-.18,15.31h7.34c2.45,0,4.19-1.21,4.24-3.68,.16-1.98-1.31-3.71-3.28-3.87-.26-.02-.52-.01-.78,.02h-14.69c-1.97-.27-3.78,1.11-4.05,3.08-.03,.25-.04,.51-.02,.76-.05,2.01,1.54,3.68,3.55,3.73,.23,0,.45,0,.68-.05,2.35-.03,4.68,0,7.02,0h0Z"/>
    </g>
  </g>
</svg>