<?xml version="1.0" encoding="utf-8"?>
<!-- Generator: Adobe Illustrator 27.0.0, SVG Export Plug-In . SVG Version: 6.00 Build 0)  -->
<svg version="1.1" id="Layer_1" xmlns="http://www.w3.org/2000/svg" xmlns:xlink="http://www.w3.org/1999/xlink" x="0px" y="0px"
	 viewBox="0 0 279.5 279.5" style="enable-background:new 0 0 279.5 279.5;" xml:space="preserve">
<style type="text/css">
	.st0{fill:#FFFFFF;}
</style>
<g id="_001-home">
	<g id="Group_2268">
		<g id="Group_2267">
			<path id="Path_4239" class="st0" d="M246.3,128.1l-98.9-90.1c-4.3-4-10.9-4-15.2,0l-99,90.1c-4.6,4.2-5,11.3-0.7,16
				c2.1,2.3,5.2,3.7,8.4,3.7h15.8V238c0,3.6,2.9,6.5,6.5,6.5h54.3c3.6,0,6.5-2.9,6.5-6.5l0,0v-54.8h31.9V238c0,3.6,2.9,6.5,6.5,6.5
				h54.3c3.6,0,6.5-2.9,6.5-6.5l0,0v-90.3h15.8c6.2,0,11.3-5,11.3-11.3c0-3.2-1.3-6.2-3.7-8.4L246.3,128.1L246.3,128.1z"/>
		</g>
	</g>
	<g id="Group_2270">
		<g id="Group_2269">
			<path id="Path_4240" class="st0" d="M221.2,47.9h-43.5l50,45.5v-39C227.6,50.8,224.7,47.9,221.2,47.9L221.2,47.9z"/>
		</g>
	</g>
</g>
</svg>
