<?xml version="1.0" encoding="utf-8"?>
<!-- Generator: Adobe Illustrator 27.0.0, SVG Export Plug-In . SVG Version: 6.00 Build 0)  -->
<svg version="1.1" id="Layer_1" xmlns="http://www.w3.org/2000/svg" xmlns:xlink="http://www.w3.org/1999/xlink" x="0px" y="0px"
	 viewBox="0 0 1080 1080" style="enable-background:new 0 0 1080 1080;" xml:space="preserve">
<style type="text/css">
	.st0{fill:none;stroke:#F9A11B;stroke-width:2;}
	.st1{fill:none;stroke:#FFDC80;stroke-width:2;}
	.st2{fill:none;stroke:#AA959F;stroke-width:2;}
	.st3{fill:#E31E7A;}
	.st4{fill:#0772B5;}
	.st5{fill:#FCDC00;}
	.st6{fill:#FFFFFF;}
	.st7{fill:#FCCC0A;}
	.st8{font-family:'HeadlineNEWS';}
	.st9{font-size:136.6307px;}
	.st10{font-family:'MicrosoftNewTaiLue-Bold';}
	.st11{font-size:149.0516px;}
	.st12{letter-spacing:29;}
</style>
<path vector-effect="non-scaling-stroke" class="st0" d="M327.6,658.9c-15.5,1-31.1,1.5-46.6,1.5c-20.1-0.1-35.4-1.9-46-5.6
	c-23.5-8-41.2-24-53.2-48.1c-3.4-6.9-5.5-14.1-6.2-21.8c-0.2-1.9-1.1-2.7-2.7-2.2"/>
<path vector-effect="non-scaling-stroke" class="st1" d="M259.3,497.1c0-18.7-15.1-33.8-33.8-33.8s-33.8,15.1-33.8,33.8
	c0,18.7,15.1,33.8,33.8,33.8S259.3,515.7,259.3,497.1"/>
<path vector-effect="non-scaling-stroke" class="st2" d="M245.5,497.1c0-11.1-9-20.1-20.1-20.1s-20.1,9-20.1,20.1s9,20.1,20.1,20.1
	S245.5,508.2,245.5,497.1"/>
<path class="st3" d="M235.4,425.1c0,1.1,0.1,1.9,0.4,2.5c0.4,1.1,0.7,1,0.8-0.2c1.8-18.7,9.2-35.5,22.3-50.6
	c17.9-20.4,40.2-30.8,67.1-31.2c1.2,0,2.2,0.9,2.2,2.1l-0.1,88.6c0,0.7-0.6,1.3-1.3,1.3l-152.2,0.6c-1.3,0-2.2-1.1-2.1-2.4
	c3.2-28.7,17.7-47.7,43.5-57.1c5.5-2,11.6-2.9,18.4-2.7c0.6,0,1.1,0.5,1.1,1.2"/>
<path class="st4" d="M163,498.2c1.1-0.9,1.1-2.7-0.1-3.6l-54.5-46.5c-0.6-0.5-0.5-0.8,0.3-0.8l55-0.6c0.6,0,1,0.5,1,1v96.9
	c0,1.1-0.9,2-1.9,2c-17.8,0.8-35.8,0.7-54.1-0.3c-0.8,0-0.9-0.3-0.3-0.9L163,498.2z"/>
<path class="st5" d="M327.4,658.9c-15.5,1-31.1,1.5-46.6,1.5c-20.1-0.1-35.4-1.9-46-5.6c-23.5-8-41.2-24-53.2-48.1
	c-3.4-6.9-5.5-14.1-6.2-21.8c-0.2-1.9-1.1-2.7-2.7-2.2l-0.1-134.8c0-0.8,0.7-1.5,1.5-1.4c5.9,0.2,12,0.3,18.1,0.4
	c3.9,0,10-0.1,18.2-0.5c9-0.4,18.1-0.3,27.1,0.1c10.1,0.5,18.9,2.1,26.5,4.7c28.4,10,48,29.5,58.8,58.5c3.5,9.4,5.1,20,4.9,31.7
	c-0.1,5.4-0.1,8.2-0.1,8.3C327.4,586,327.4,622.3,327.4,658.9z M259.1,497.1c0-18.7-15.1-33.8-33.8-33.8s-33.8,15.1-33.8,33.8
	c0,18.7,15.1,33.8,33.8,33.8S259.1,515.7,259.1,497.1z"/>
<path class="st6" d="M259.3,497.1c0,18.7-15.1,33.8-33.8,33.8s-33.8-15.2-33.8-33.8c0-18.7,15.1-33.8,33.8-33.8
	S259.3,478.4,259.3,497.1z M245.5,497.1c0-11.1-9-20.1-20.1-20.1s-20.1,9-20.1,20.1s9,20.1,20.1,20.1S245.5,508.2,245.5,497.1z"/>
<circle class="st4" cx="225.4" cy="497.1" r="20.1"/>
<path class="st3" d="M161.1,568.1c0.4-0.4,0.6-0.3,0.6,0.3c0.6,28.4,0.8,56.8,0.7,85.3c-0.1,18.2-0.5,29.1-1.4,32.7
	c-1.9,7.9-5.7,14.7-11.5,20.6c-5.3,5.3-11.8,9.2-19.6,11.4c-13.1,3.8-25,2.2-35.7-4.8c-9.9-6.5-16.4-15.1-19.5-25.9
	c-3.3-11.3-1.6-23,5.1-34.8c2.8-4.9,8.5-12.1,17.3-21.5"/>
<path class="st7" d="M327.6,659l0,44.6c0,1-0.8,1.8-1.8,1.8c-15.5,0-30.5,0-45.1,0c-19,0-32.7-1.2-41.1-3.6
	c-17-4.9-31.6-14.2-43.8-28c-12-13.6-19.5-29.8-22.6-48.6c-1-5.9-1.1-20-0.5-42.5c1.6-0.5,2.5,0.3,2.7,2.2
	c0.7,7.6,2.8,14.9,6.2,21.8c12,24,29.8,40.1,53.2,48.1c10.6,3.6,26,5.5,46,5.6C296.5,660.5,312.1,660.1,327.6,659z"/>
<text transform="matrix(1 0 0 1 327.6374 553.2682)" class="st4 st8 st9">CHICK</text>
<text transform="matrix(1 0 0 1 843.0074 553.2682)" class="st4 st10 st9">’</text>
<text transform="matrix(1 0 0 1 882.6274 553.2682)" class="st4 st8 st9">S</text>
<text transform="matrix(1 0 0 1 339.697 700.1617)" class="st3 st8 st11 st12">NOOK</text>
</svg>
