<?xml version="1.0" encoding="utf-8"?>
<!-- Generator: Adobe Illustrator 27.0.0, SVG Export Plug-In . SVG Version: 6.00 Build 0)  -->
<svg version="1.1" id="Layer_1" xmlns="http://www.w3.org/2000/svg" xmlns:xlink="http://www.w3.org/1999/xlink" x="0px" y="0px"
	 viewBox="0 0 1080 1080" style="enable-background:new 0 0 1080 1080;" xml:space="preserve">
<style type="text/css">
	.st0{fill-rule:evenodd;clip-rule:evenodd;fill:#FFFFFF;}
	.st1{fill:#FFFFFF;}
</style>
<g>
	<path class="st0" d="M705,247.4c35.1,0,63.6,1.5,63.6,3.3c0,1.8-28.5,3.3-63.6,3.3s-63.6-1.5-63.6-3.3
		C641.4,248.9,669.9,247.4,705,247.4L705,247.4z"/>
	<polygon class="st0" points="708.2,729.2 674.5,729.2 674.5,762.9 708.2,762.9 708.2,729.2 	"/>
	<polygon class="st0" points="686.2,768.6 696.4,768.6 690.8,832.6 686.2,768.6 	"/>
	<polygon class="st0" points="753.4,287.7 652.1,287.7 652.1,313.2 753.4,313.2 753.4,287.7 	"/>
	<path class="st0" d="M694.2,252.2v51.6c0,2.5,4.7,4.5,10.5,4.5s10.5-2,10.5-4.5v-51.6c0-2.5-4.7-4.5-10.5-4.5
		S694.2,249.7,694.2,252.2L694.2,252.2z"/>
	<g>
		<path class="st1" d="M620.6,451.3c47.2,1.4,78.5,1.7,78.5,1.7c-25.8,10-54.4,21.2-77.4,29.6l3.2,29.1h138.7l9.4-85.4
			C724.8,434.5,620.6,451.9,620.6,451.3z M711.2,450.9c-3,0-5.5-2.5-5.5-5.5c0-3,2.5-5.5,5.5-5.5s5.5,2.5,5.5,5.5
			C716.7,448.4,714.2,450.9,711.2,450.9z"/>
	</g>
	<g>
		<path class="st1" d="M772.3,334.9c-6.4-7.2-15.7-11.3-25.3-11.3c-23.6,0-54.2,0-79.3,0c-12.3,0-24.1,4.9-32.8,13.6
			c-8.7,8.7-13.6,20.5-13.6,32.8c26.8,4.9,50.7,9,78.2,13.3c0,0-32.5,0.7-78.2,1.7c0,0,88.1,13.3,153.8,25.8c0,0,2.9-25.9,5.6-49.4
			C781.8,351.8,778.7,342.1,772.3,334.9z M695.7,349.9c-3,0-5.5-2.5-5.5-5.5c0-3,2.5-5.5,5.5-5.5c3,0,5.5,2.5,5.5,5.5
			C701.2,347.4,698.7,349.9,695.7,349.9z M719.5,387.9c-1.8,0-3.2-1.4-3.2-3.2s1.4-3.2,3.2-3.2c1.8,0,3.2,1.4,3.2,3.2
			S721.2,387.9,719.5,387.9z"/>
	</g>
	<g>
		<path class="st1" d="M746.6,659.8c0,0-76.1-17.9-103.7-24.2c0,0,3.9,30.2,7,54.1c2.1,16.3,16,28.6,32.5,28.6c6,0,12.5,0,18.9,0
			c11.6,0,22.8-4.6,31-12.8c8.2-8.2,12.8-19.4,12.8-31c-20.6-5-40-9.3-63-12.9C682.2,661.5,707.3,659.8,746.6,659.8z M683.5,693.9
			c1.3,0,2.3,1,2.3,2.3c0,1.3-1,2.3-2.3,2.3c-1.3,0-2.3-1-2.3-2.3C681.2,694.9,682.2,693.9,683.5,693.9z"/>
	</g>
	<g>
		<path class="st1" d="M759.2,537l-129.1,0.2l10.2,83.6c40.3-8,106.6-25.8,106.6-25.2c-39.3-1.4-65.4-1.7-65.4-1.7
			c21.5-9.7,55.7-22,74.8-30.1L759.2,537z M653.5,608.5c-2.1,0-3.9-1.7-3.9-3.9c0-2.1,1.7-3.9,3.9-3.9c2.1,0,3.9,1.7,3.9,3.9
			C657.4,606.7,655.6,608.5,653.5,608.5z M704.6,556.9c-2.9,0-5.3-2.4-5.3-5.3c0-2.9,2.4-5.3,5.3-5.3c2.9,0,5.3,2.4,5.3,5.3
			C709.9,554.5,707.5,556.9,704.6,556.9z"/>
	</g>
	<path class="st1" d="M357.5,318.9H151.8c-35.5,0-64.4,23.1-64.4,51.3v89.9c0,28.2,29,51.3,64.4,51.3h205.7
		c35.5,0,64.4-23.1,64.4-51.3v-89.9C422,342,393,318.9,357.5,318.9L357.5,318.9z M374.4,459.6c0,7.7-7.9,14.3-17.9,14.3H152.5
		c-9.7,0-17.9-6.6-17.9-14.3v-88.5c0-8,8.2-14.3,17.9-14.3h203.9c10,0,17.9,6.3,17.9,14.3V459.6L374.4,459.6z"/>
	<polygon class="st1" points="567.9,318.9 526.8,472.1 485.7,318.9 446.6,318.9 498.3,511.4 555.3,511.4 606.9,318.9 567.9,318.9 	
		"/>
	<path class="st1" d="M992.6,450.4v0.9C992.6,451,992.6,450.7,992.6,450.4L992.6,450.4z M992.6,371.3v0.9
		C992.6,371.9,992.6,371.6,992.6,371.3L992.6,371.3z M961,727.3l-0.3-227.5c18.6-8.4,31.6-27.1,31.9-48.4v-80.1
		C992,341.8,968,318,938.5,318H803v416.6h39.7V372.6l-13.3-27.8l26.7,13.3h81.4c8.4,0,15.1,6.6,15.1,15.1v76.5
		c0,8.4-6.6,15.1-15.1,15.1h-61.2l-12,40h56.4l0.5,222.7L961,727.3L961,727.3z"/>
	<path class="st1" d="M186.5,537.4H88V734h98.4c28.8,0,52.4-23.6,52.4-52.4v-91.8C238.8,561,215.3,537.4,186.5,537.4L186.5,537.4z
		 M200.1,681c0,7.9-6.4,14.6-14.6,14.6h-78.1l18.9-19.2V576.1h59.1c8.2,0,14.6,6.4,14.6,14.6V681L200.1,681z"/>
	<path class="st1" d="M369,537.4h-49.5c-28.8,0-52.4,23.6-52.4,52.4v91.8c0,28.8,23.6,52.4,52.4,52.4H369
		c28.8,0,52.4-23.6,52.4-52.4v-91.8C421.4,561,397.8,537.4,369,537.4L369,537.4z M382.7,681c0,7.9-6.4,14.6-14.6,14.6h-48.1
		c-7.9,0-14.6-6.7-14.6-14.6v-90.3c0-8.2,6.7-14.6,14.6-14.6h48.1c4.5,0,26.2-9.9,26.2-9.9s-11.6,30.5-11.6,34.1V681L382.7,681z"/>
	<path class="st1" d="M606.9,668.7c0-28.8-23.6-52.4-52.4-52.4h-54.8c-7.9,0-14.6-6.4-14.6-14.6v-11.1c0-8.2,6.7-14.6,14.6-14.6h81
		l11.6-38.7h-93.2c-28.8,0-52.4,23.6-52.4,52.4v12.8c0,28.8,23.6,52.4,52.4,52.4h54.5c8.2,0,14.6,6.4,14.6,14.6V681
		c0,7.9-6.4,14.6-14.6,14.6h-95.2L446.7,734h107.7c28.8,0,52.4-23.6,52.4-52.4V668.7L606.9,668.7z"/>
</g>
</svg>
